# File created by Blade
# Date/Time:  Thu Mar 15 16:00:31 2018
#---------------------------------------------------------
:version 1.10
:name HOM
:units
  mass 1.0
  length 1.000000
  angle deg
:documentation
     Acclaim Skeleton File
:root
   axis xyz
   order TX TY TZ RX RZ RY
   position 0.000000 0.000000 0.000000
   orientation 0 0 0
:bonedata
   begin
      id 1
      name Spine_dum
      direction 0.000000 0.554700 0.832050
      length 3.185137
      axis 0.0 0.0 0.0 xyz
   end
   begin
      id 2
      name RightUpLeg_dum
      direction -0.959879 0.000000 -0.280414
      length 3.741437
      axis 0.0 0.0 0.0 xyz
   end
   begin
      id 3
      name LeftUpLeg_dum
      direction 0.959879 0.000000 -0.280414
      length 3.741437
      axis 0.0 0.0 0.0 xyz
   end
   begin
      id 4
      name Spine
      direction 0.000000 0.173648 0.984808
      length 3.533592
      axis -10.0 0.0 0.0 xyz
      dof rx rz ry
   end
   begin
      id 5
      name Spine1
      direction 0.000000 0.087156 0.996195
      length 3.533592
      axis -5.0 0.0 0.0 xyz
      dof rx rz ry
   end
   begin
      id 6
      name Spine2
      direction 0.000000 0.000000 1.000000
      length 3.533592
      axis 0.0 0.0 0.0 xyz
      dof rx rz ry
   end
   begin
      id 7
      name Spine3
      direction 0.000000 -0.141421 0.989949
      length 0.000000
      axis 0.0 0.0 0.0 xyz
      dof rx rz ry
   end
   begin
      id 8
      name Spine3_dum1
      direction 0.000000 -0.141421 0.989949
      length 9.369850
      axis 0.0 0.0 0.0 xyz
   end
   begin
      id 9
      name Spine3_dum2
      direction -0.174242 -0.290403 0.940907
      length 6.947577
      axis 0.0 0.0 0.0 xyz
   end
   begin
      id 10
      name Spine3_dum3
      direction 0.174242 -0.290403 0.940907
      length 6.947577
      axis 0.0 0.0 0.0 xyz
   end
   begin
      id 11
      name Neck
      direction 0.000000 -0.173648 0.984808
      length 4.858689
      axis 10.0 0.0 0.0 xyz
      dof rx rz ry
   end
   begin
      id 12
      name Head
      direction 0.000000 0.000000 1.000000
      length 5.720002
      axis 0.0 0.0 0.0 xyz
      dof rx rz ry
   end
   begin
      id 13
      name RightShoulder
      direction -1.000000 0.000000 0.000000
      length 6.012446
      axis -180.0 0.0 -180.0 xyz
      dof rz rx ry
   end
   begin
      id 14
      name RightArm
      direction -1.000000 0.000000 0.000000
      length 11.728112
      axis -180.0 0.0 -180.0 xyz
      dof ry rz rx
   end
   begin
      id 15
      name RightForeArm
      direction -1.000000 0.000000 0.000000
      length 4.841601
      axis -180.0 0.0 -180.0 xyz
      dof rx ry rz
   end
   begin
      id 16
      name RightForeArmRoll
      direction -1.000000 0.000000 0.000000
      length 5.003964
      axis -180.0 0.0 -180.0 xyz
      dof rx ry rz
   end
   begin
      id 17
      name RightHand
      direction -1.000000 0.000000 0.000000
      length 0.000000
      axis -180.0 0.0 -180.0 xyz
      dof rx ry rz
   end
   begin
      id 18
      name RightHand_dum1
      direction -1.000000 0.000000 0.000000
      length 2.836875
      axis -180.0 0.0 -180.0 xyz
   end
   begin
      id 19
      name RightHand_dum2
      direction -0.486664 -0.811107 -0.324443
      length 2.331690
      axis -180.0 0.0 -180.0 xyz
   end
   begin
      id 20
      name RightHandEnd
      direction -1.000000 0.000000 0.000000
      length 2.836875
      axis 90.0 0.0 -180.0 xyz
      dof rx ry rz
   end
   begin
      id 21
      name RightHandThumb1
      direction -0.965926 -0.258819 0.000000
      length 2.836875
      axis -10.0 0.0 -165.0 xyz
      dof rx ry rz
   end
   begin
      id 22
      name LeftShoulder
      direction 1.000000 0.000000 0.000000
      length 6.012446
      axis 0.0 0.0 0.0 xyz
      dof rz rx ry
   end
   begin
      id 23
      name LeftArm
      direction 1.000000 0.000000 0.000000
      length 11.728112
      axis 0.0 0.0 0.0 xyz
      dof ry rz rx
   end
   begin
      id 24
      name LeftForeArm
      direction 1.000000 0.000000 0.000000
      length 4.841601
      axis 0.0 0.0 0.0 xyz
      dof rx ry rz
   end
   begin
      id 25
      name LeftForeArmRoll
      direction 1.000000 0.000000 0.000000
      length 5.003964
      axis 0.0 0.0 0.0 xyz
      dof rx ry rz
   end
   begin
      id 26
      name LeftHand
      direction 1.000000 0.000000 0.000000
      length 0.000000
      axis 0.0 0.0 0.0 xyz
      dof rx ry rz
   end
   begin
      id 27
      name LeftHand_dum1
      direction 1.000000 0.000000 0.000000
      length 2.836875
      axis 0.0 0.0 0.0 xyz
   end
   begin
      id 28
      name LeftHand_dum2
      direction 0.486664 -0.811107 -0.324443
      length 2.331690
      axis 0.0 0.0 0.0 xyz
   end
   begin
      id 29
      name LeftHandEnd
      direction 1.000000 0.000000 0.000000
      length 2.836875
      axis 90.0 0.0 0.0 xyz
      dof rx ry rz
   end
   begin
      id 30
      name LeftHandThumb1
      direction 0.965926 -0.258819 0.000000
      length 2.836875
      axis 170.0 0.0 -15.0 xyz
      dof rx ry rz
   end
   begin
      id 31
      name RightUpLeg
      direction 0.000000 0.000000 -1.000000
      length 15.861483
      axis 0.0 90.0 0.0 xyz
      dof ry rz rx
   end
   begin
      id 32
      name RightLeg
      direction 0.000000 0.000000 -1.000000
      length 17.164458
      axis 0.0 90.0 0.0 xyz
      dof rx ry rz
   end
   begin
      id 33
      name RightFoot
      direction 0.000000 -0.939693 -0.342020
      length 7.211980
      axis -90.0 20.0 -90.0 xyz
      dof rx rz ry
   end
   begin
      id 34
      name RightToeBase
      direction 0.000000 -1.000000 0.000000
      length 2.905343
      axis -90.0 0.0 -90.0 xyz
      dof ry rz rx
   end
   begin
      id 35
      name LeftUpLeg
      direction 0.000000 0.000000 -1.000000
      length 15.861483
      axis 0.0 90.0 0.0 xyz
      dof ry rz rx
   end
   begin
      id 36
      name LeftLeg
      direction 0.000000 0.000000 -1.000000
      length 17.164458
      axis 0.0 90.0 0.0 xyz
      dof rx ry rz
   end
   begin
      id 37
      name LeftFoot
      direction 0.000000 -0.939693 -0.342020
      length 7.211980
      axis -90.0 20.0 -90.0 xyz
      dof rx rz ry
   end
   begin
      id 38
      name LeftToeBase
      direction 0.000000 -1.000000 0.000000
      length 2.905343
      axis -90.0 0.0 -90.0 xyz
      dof ry rz rx
   end
:hierarchy
   begin
      root Spine_dum RightUpLeg_dum LeftUpLeg_dum
      Spine_dum Spine
      RightUpLeg_dum RightUpLeg
      LeftUpLeg_dum LeftUpLeg
      Spine Spine1
      Spine1 Spine2
      Spine2 Spine3
      Spine3 Spine3_dum1 Spine3_dum2 Spine3_dum3
      Spine3_dum1 Neck
      Spine3_dum2 RightShoulder
      Spine3_dum3 LeftShoulder
      Neck Head
      RightShoulder RightArm
      RightArm RightForeArm
      RightForeArm RightForeArmRoll
      RightForeArmRoll RightHand
      RightHand RightHand_dum1 RightHand_dum2
      RightHand_dum1 RightHandEnd
      RightHand_dum2 RightHandThumb1
      LeftShoulder LeftArm
      LeftArm LeftForeArm
      LeftForeArm LeftForeArmRoll
      LeftForeArmRoll LeftHand
      LeftHand LeftHand_dum1 LeftHand_dum2
      LeftHand_dum1 LeftHandEnd
      LeftHand_dum2 LeftHandThumb1
      RightUpLeg RightLeg
      RightLeg RightFoot
      RightFoot RightToeBase
      LeftUpLeg LeftLeg
      LeftLeg LeftFoot
      LeftFoot LeftToeBase
   end

# File created by Blade
# Date/Time:  Thu Mar 15 15:59:21 2018
# Frame Rate: 120.000 fps
#------------------------------------------------------
:FULLY-SPECIFIED
:DEGREES
55
root -0.209614 38.215255 -0.782886 -88.930031 0.243600 0.094919
Spine -0.247255 0.074199 0.377342
Spine1 -0.615292 -0.001860 0.009135
Spine2 1.385090 0.349629 0.492986
Spine3 0.111580 -0.076074 -0.399958
Neck -1.322939 -0.144630 -0.000788
Head -1.056047 -1.007394 -0.234478
RightShoulder 0.853912 -4.341341 -6.039536
RightArm -68.089516 -18.828823 -8.968881
RightForeArm 0.000000 -0.000000 -31.288662
RightForeArmRoll 4.431135 -0.000000 -0.000000
RightHand 0.000000 8.092923 -3.002424
RightHandEnd 0.000000 -0.000000 0.000000
RightHandThumb1 0.000000 -0.000000 0.000000
LeftShoulder 2.979445 5.035433 6.323313
LeftArm 67.743202 -38.155563 1.686366
LeftForeArm 0.000000 -0.000000 -19.310032
LeftForeArmRoll -5.405041 -0.000000 0.000000
LeftHand 0.000000 -21.435734 0.521659
LeftHandEnd 0.000000 -0.000000 0.000000
LeftHandThumb1 0.000000 -0.000000 0.000000
RightUpLeg 4.201394 -1.534985 9.343771
RightLeg -0.000000 -0.000000 14.742684
RightFoot 4.041633 -14.963945 -1.839817
RightToeBase -0.000000 0.642819 -0.000000
LeftUpLeg -5.027195 0.145798 0.511295
LeftLeg -0.000000 -0.000000 11.584646
LeftFoot -7.830990 -12.765040 -0.055000
LeftToeBase -0.000000 0.924913 -0.000000
56
root -0.211335 38.215693 -0.784855 -88.912201 0.234421 0.101751
Spine -0.248585 0.073835 0.370871
Spine1 -0.618491 -0.001799 0.007476
Spine2 1.384083 0.351804 0.494313
Spine3 0.111924 -0.074177 -0.402013
Neck -1.312165 -0.149296 -0.003315
Head -1.055204 -1.005119 -0.231928
RightShoulder 0.857672 -4.348186 -6.038255
RightArm -68.110245 -18.823635 -8.948157
RightForeArm 0.000000 -0.000000 -31.276941
RightForeArmRoll 4.434154 -0.000000 -0.000000
RightHand 0.000000 8.050892 -3.032565
RightHandEnd 0.000000 -0.000000 0.000000
RightHandThumb1 0.000000 -0.000000 0.000000
LeftShoulder 2.974315 5.049583 6.341822
LeftArm 67.686508 -38.263824 1.733896
LeftForeArm 0.000000 -0.000000 -19.290548
LeftForeArmRoll -4.493630 -0.000000 0.000000
LeftHand -0.000000 -21.264706 1.137258
LeftHandEnd 0.000000 -0.000000 0.000000
LeftHandThumb1 0.000000 -0.000000 0.000000
RightUpLeg 4.187951 -1.546869 9.347076
RightLeg -0.000000 -0.000000 14.729019
RightFoot 4.057217 -14.958362 -1.846778
RightToeBase -0.000000 0.657966 -0.000000
LeftUpLeg -5.038378 0.119863 0.523483
LeftLeg -0.000000 -0.000000 11.589791
LeftFoot -7.845072 -12.761971 -0.051270
LeftToeBase -0.000000 0.901759 -0.000000
57
root -0.212583 38.216856 -0.788296 -88.889740 0.233676 0.110881
Spine -0.248817 0.074212 0.373806
Spine1 -0.619741 -0.001235 0.012436
Spine2 1.376311 0.350580 0.485878
Spine3 0.113951 -0.071796 -0.401912
Neck -1.280527 -0.163697 -0.000141
Head -1.064577 -1.035750 -0.245318
RightShoulder 0.861588 -4.355061 -6.049747
RightArm -68.118088 -18.817732 -8.930488
RightForeArm 0.000000 -0.000000 -31.267366
RightForeArmRoll 4.525513 -0.000000 -0.000000
RightHand 0.000000 8.009329 -3.071599
RightHandEnd 0.000000 -0.000000 0.000000
RightHandThumb1 0.000000 -0.000000 0.000000
LeftShoulder 2.973929 5.046924 6.350065
LeftArm 67.658478 -38.302139 1.751015
LeftForeArm 0.000000 -0.000000 -19.275621
LeftForeArmRoll -4.516584 -0.000000 0.000000
LeftHand 0.000000 -21.290859 1.124501
LeftHandEnd 0.000000 -0.000000 0.000000
LeftHandThumb1 0.000000 -0.000000 0.000000
RightUpLeg 4.178733 -1.570633 9.342278
RightLeg -0.000000 -0.000000 14.721995
RightFoot 4.076883 -14.948350 -1.833867
RightToeBase -0.000000 0.628591 -0.000000
LeftUpLeg -5.042785 0.077672 0.529367
LeftLeg -0.000000 -0.000000 11.613194
LeftFoot -7.869983 -12.764944 -0.043455
LeftToeBase -0.000000 0.914396 -0.000000
58
root -0.214942 38.218928 -0.790691 -88.877937 0.207125 0.113363
Spine -0.250789 0.071324 0.353768
Spine1 -0.624057 -0.000999 0.008035
Spine2 1.384605 0.364095 0.483694
Spine3 0.115974 -0.067627 -0.401412
Neck -1.301905 -0.153187 -0.009876
Head -1.030454 -1.019966 -0.229925
RightShoulder 0.871092 -4.350968 -6.050401
RightArm -68.138031 -18.805046 -8.918969
RightForeArm 0.000000 -0.000000 -31.269012
RightForeArmRoll 3.323326 -0.000000 -0.000000
RightHand 0.000000 7.560317 -2.566623
RightHandEnd 0.000000 -0.000000 0.000000
RightHandThumb1 0.000000 -0.000000 0.000000
LeftShoulder 2.944279 5.033237 6.315550
LeftArm 67.766846 -38.026974 1.612978
LeftForeArm 0.000000 -0.000000 -19.314180
LeftForeArmRoll -5.414502 -0.000000 0.000000
LeftHand 0.000000 -21.164440 0.585154
LeftHandEnd 0.000000 -0.000000 0.000000
LeftHandThumb1 0.000000 -0.000000 0.000000
RightUpLeg 4.126954 -1.598625 9.400034
RightLeg -0.000000 -0.000000 14.762853
RightFoot 4.074156 -14.929955 -1.782100
RightToeBase -0.000000 0.655932 -0.000000
LeftUpLeg -5.078403 0.051324 0.506972
LeftLeg -0.000000 -0.000000 11.626719
LeftFoot -7.866484 -12.768649 -0.009651
LeftToeBase -0.000000 0.917661 -0.000000
